<svg width="357" height="154" viewBox="0 0 357 154" fill="none" xmlns="http://www.w3.org/2000/svg">
<mask id="mask0_729_8" style="mask-type:luminance" maskUnits="userSpaceOnUse" x="0" y="0" width="357" height="154">
<path d="M357 154H0V0H357V154Z" fill="white"/>
</mask>
<g mask="url(#mask0_729_8)">
<path d="M34.2566 14.6728C34.2566 16.2574 41.6618 12.719 41.6618 14.7701C41.6618 13.7272 48.9671 16.162 48.9671 17.0527C48.9671 18.1689 54.5097 17.7573 54.5097 20.5324C54.5097 17.3187 61.1167 16.1688 61.1167 19.0865C61.1167 22.5971 66.1386 23.6786 66.1386 21.8992C66.1386 24.5798 71.4746 17.5057 71.4746 20.0254C71.4746 19.6899 77.2585 23.2853 77.2585 23.185C77.2585 22.9364 82.2078 19.7921 82.2078 19.0855C82.2078 20.3627 87.8024 19.8027 87.8024 19.1415C87.8024 16.2324 93.5715 18.7366 93.5715 17.1288C93.5715 17.844 99.7553 17.3052 99.7553 17.3023C99.7553 16.5379 105.631 17.3794 105.631 15.8487C105.631 19.1453 111.591 11.3174 111.591 14.8434C111.591 13.9132 116.782 8.71487 116.782 9.77902C116.782 11.4871 123.062 9.13032 123.062 10.4596C123.062 11.6837 129.083 11.1555 129.083 9.77517C129.083 11.3714 134.404 4.25969 134.404 5.3971C134.404 4.89297 140.428 6.05834 140.428 5.62362C140.428 3.7199 146.181 2.52369 146.181 4.4997C146.181 5.41445 152.016 7.61891 152.016 4.61056C152.016 4.87852 157.798 4.9325 157.798 3.35747C157.798 1.90101 164.099 4.96431 164.099 3.72954C164.099 4.61923 169.941 5.9957 169.941 6.60392C169.941 7.07913 175.532 10.3699 175.532 9.8706C175.532 10.0046 182.597 10.9058 182.597 8.96164C182.597 7.53988 187.991 12.9618 187.991 12.8616C187.991 12.7141 192.688 17.6069 192.688 18.619C192.688 18.2711 198.567 21.9088 198.567 21.343C198.567 21.8153 205.092 20.4967 205.092 21.7344C205.092 22.4987 211.405 21.9464 211.405 21.8038C211.405 21.744 217.447 25.8522 217.447 26.6127C217.447 27.0426 223.595 29.0524 223.595 28.3458C223.595 28.4326 230.271 26.7313 230.271 27.6797C230.271 28.501 234.395 33.6396 234.395 34.0705C234.395 35.3361 240.467 36.085 240.467 36.167C240.467 34.8184 246.869 37.3834 246.869 36.8966C246.869 35.8797 253.079 35.4652 253.079 35.0912C253.079 34.5688 259.473 37.7121 259.473 37.7217C259.473 38.8293 264.998 33.7283 264.998 33.7524C264.998 33.6203 271.858 31.2597 271.858 33.3147C271.858 33.8314 276.774 28.5617 276.774 28.0007C276.774 25.8377 282.408 21.9715 282.408 24.4343C282.408 21.2833 287.402 26.4614 287.402 26.1365C287.402 26.1201 292.794 24.7071 292.794 25.8512C292.794 25.3384 298.252 26.1548 298.252 25.2555C298.252 23.0202 304.435 28.6687 304.435 29.8678C304.435 30.6601 310.825 23.746 310.825 27.6566C310.825 31.172 316.907 26.7235 316.907 25.1456C316.907 26.0324 323.392 23.7817 323.392 24.4767C323.392 25.7972 329.013 22.3532 329.013 21.3941C329.013 22.5093 335.069 18.9602 335.069 20.089C335.069 21.9339 340.415 12.6312 340.415 15.0747C340.415 14.7451 346.439 14.5465 346.439 13.3416C346.439 17.0498 352.722 14.2207 352.722 13.2105C352.722 13.1363 359.248 15.4497 359.248 14.7836C359.248 13.0582 365.142 10.4326 365.142 12.3845C365.142 12.05 369.561 12.0905 369.561 13.359C369.561 13.7474 373.36 18.4667 373.36 16.5842C373.36 16.2083 375.541 22.2076 375.541 22.732C375.541 22.8776 377.926 30.6717 377.926 29.7126C377.926 29.4283 376.501 37.4393 376.501 36.6875C376.501 35.3582 378.3 43.5119 378.3 43.3114C378.3 43.108 378.21 49.5653 378.21 50.2236C378.21 50.6072 382.37 55.5222 382.37 56.2606C382.37 56.1198 381.508 63.3424 381.508 63.3424L382.815 69.9615L382.422 76.8959L386.476 83.1073L384.955 90.1429L383.515 96.9307L387.175 103.833L385.98 110.681L383.886 117.213L382.613 123.971L377.763 129.425L376.81 137.146L371.501 142.013L370.718 149.864L365.622 155.25L363.42 161.248L362.073 167.902L355.778 168.622L349.835 172.186L343.776 169.41L337.867 172.974L331.876 173.049L325.883 173.061L319.854 171.516L313.919 174.042L307.92 173.797L301.95 174.803L295.946 174.357L289.877 170.936L283.908 172.012L277.962 174.162L271.972 174.326L265.95 172.924L259.971 173.561L253.966 172.948L248.001 174.339L242.047 176.35L236.004 173.649L230.064 176.572L224.025 173.932L218.021 173.225L212.087 176.712L206.035 172.912L200.077 175.115L194.115 177.14L188.099 175.407L182.096 174.507L176.104 174.338L170.118 174.778L164.164 178.244L158.169 178.137L152.157 175.932L146.151 173.937L140.173 175.524L134.196 177.773L128.205 178.108L122.198 174.456L116.215 176.527L110.224 176.549L104.233 176.516L98.2422 175.103L92.2476 178.658L86.2645 174.698L80.2749 174.988L74.2711 177.757L68.2806 177.438L62.3034 175.477L56.3063 176.22L50.31 176.674L44.3443 174.41L38.329 176.395L32.6889 175.64L27.0182 175.765L21.3459 175.425L16.1586 171.739L10.3797 172.043L4.84951 170.506L-0.356737 167.765L-4.17465 162.7L-9.21811 159.308L-13.3781 154.418L-14.9235 147.792L-16.2606 141.347L-15.364 134.516L-16.7556 128.225L-16.6176 121.7L-16.7564 115.179L-17.7018 108.358L-18.9116 101.544L-19.5372 94.6983L-19.9289 87.8382L-20.1496 80.9684L-20.9189 74.0861L-17.4605 67.2877L-18.1208 60.4275L-18.0522 53.5818L-16.7779 46.849L-19.5364 39.6062L-18.7216 32.746C-18.7216 32.746 -16.5597 24.5692 -16.5597 24.8092C-16.5597 24.4738 -12.7336 17.4951 -12.7336 18.191C-12.7336 18.2537 -7.48021 13.3705 -7.48021 14.8347C-7.48021 14.9976 -2.07563 17.2464 -2.07563 17.978C-2.07563 19.3015 3.94296 19.9376 3.94296 19.929C3.94296 17.712 10.0624 16.616 10.0624 17.9057C10.0624 17.6233 16.0892 16.8927 16.0892 17.1076C16.0892 14.6564 22.2243 20.8331 22.2243 18.0397C22.2243 19.8133 28.1471 14.8848 28.1471 15.2039C28.1471 16.1235 34.2566 15.9519 34.2566 14.6728Z" fill="white"/>
</g>
<mask id="mask1_729_8" style="mask-type:luminance" maskUnits="userSpaceOnUse" x="0" y="0" width="357" height="154">
<path d="M357 154H0V0H357V154Z" fill="white"/>
</mask>
<g mask="url(#mask1_729_8)">
<path d="M18.0229 25.8749C18.0229 25.7648 23.5186 21.1361 23.5186 23.4426C23.5186 22.1792 29.3696 25.8286 29.3696 22.6942C29.3696 21.0802 34.8107 19.266 34.8107 20.9945C34.8107 21.8443 40.3791 19.7634 40.3791 22.1958C40.3791 21.5619 45.8318 23.0998 45.8318 24.3274C45.8318 23.2257 51.482 25.0443 51.482 26.8953C51.482 27.9042 58.1282 24.5634 58.1282 25.4142C58.1282 22.8489 63.8776 25.6459 63.8776 27.0246C63.8776 26.7116 69.7089 27.0911 69.7089 29.339C69.7089 29.1991 75.9484 31.2371 75.9484 31.1383C75.9484 30.4651 82.1086 29.5322 82.1086 29.5925C82.1086 31.3158 87.1736 27.064 87.1736 27.5781C87.1736 26.9643 92.4494 25.4841 92.4494 26.4721C92.4494 25.8872 96.7499 22.8078 96.7499 22.6942C96.7499 22.9731 102.627 20.24 102.627 20.7733C102.627 20.5328 108.102 17.8688 108.102 17.0837C108.102 18.9643 114.162 16.0922 114.162 15.6262C114.162 14.2605 120.653 16.3125 120.653 16.7138C120.653 18.6714 126.462 11.2406 126.462 14.0979C126.462 14.1407 132.8 15.7162 132.8 14.7431C132.8 13.6861 138.819 14.4537 138.819 13.8286C138.819 13.4789 144.566 9.01459 144.566 10.396C144.566 10.2456 150.812 10.8402 150.812 11.1584C150.812 14.2002 156.916 13.6494 156.916 13.1615C156.916 14.2806 163.312 10.2509 163.312 10.6627C163.312 9.89416 169.261 14.0218 169.261 12.9508C169.261 13.7534 175.479 13.4133 175.479 13.6336C175.479 12.873 181.339 16.1796 181.339 15.8185C181.339 16.8179 186.641 20.782 186.641 19.4784C186.641 18.876 191.988 22.904 191.988 22.7169C191.988 22.3261 197.747 23.2642 197.747 24.9123C197.747 24.2653 204.237 26.2133 204.237 25.652C204.237 25.6852 208.085 31.1471 208.085 31.9278C208.085 30.2658 213.945 32.539 213.945 34.0498C213.945 33.2148 219.253 36.4673 219.253 37.2883C219.253 38.528 225.15 36.3589 225.15 36.8039C225.15 35.9908 229.258 41.6074 229.258 39.6026C229.258 41.5444 233.936 40.1919 233.936 40.0371C233.936 39.9488 240.06 42.1818 240.06 43.1322C240.06 43.3604 245.05 38.16 245.05 38.146C245.05 37.2979 250.98 36.0397 250.98 36.7313C250.98 38.0402 257.143 39.1488 257.143 38.0612C257.143 38.6373 263.095 37.5138 263.095 38.0961C263.095 39.7556 268.694 38.7589 268.694 39.1733C268.694 37.7892 273.504 39.3315 273.504 37.9711C273.504 36.8371 275.647 32.5119 275.647 32.8074C275.647 33.3215 282.597 34.6767 282.597 32.8546C282.597 31.9549 288.394 28.1552 288.394 28.3886C288.394 28.9962 294.905 31.0832 294.905 29.4797C294.905 28.9919 301.227 31.3525 301.227 30.904C301.227 29.7525 307.607 30.3628 307.607 32.1648C307.607 31.6314 313.724 34.9521 313.724 33.054C313.724 34.6994 319.187 28.9106 319.187 28.8528C319.187 28.2233 324.76 29.8985 324.76 26.8786C324.76 28.5888 331.172 26.7414 331.172 28.2006C331.172 27.6384 336.334 23.2048 336.334 24.4375C336.334 22.0201 342.812 26.9766 342.812 25.8478C342.812 30.7545 348.299 25.5864 348.299 23.4749C348.299 24.0966 353.628 21.2498 353.628 19.2389C353.628 19.4452 359.798 20.386 359.798 20.7147C359.798 19.7337 366.279 18.7973 366.279 20.059C366.279 21.3189 367.616 26.8384 367.616 26.7466C367.616 27.7433 369.634 31.7941 369.634 32.7331C369.634 31.2765 368.062 39.607 368.062 39.3805C368.062 39.2188 369.016 45.8435 369.016 45.5226C369.016 46.2675 371.539 51.0605 371.539 51.5257C371.539 50.6321 369.921 57.93 369.921 57.93L370.976 64.1176L370.195 70.3619L370.741 76.5993L370.365 82.8236L369.886 89.0374L371.875 95.5825L368.434 101.41L368.109 107.688L366.224 113.655L366.245 120.09L363.524 125.796L363.408 132.312L361.666 138.339L357.459 143.358L357.833 150.312L352.397 154.356L351.262 161.407L345.959 163.86L340.588 164.885L335.391 166.109L329.27 165.903L323.188 165.4L317.235 166.933L311.186 166.795L305.159 169.011L299.097 166.573L293.034 168.8L287.099 167.919L281.16 168.061L275.231 165.851L269.281 168.455L263.341 168.877L257.409 167.211L251.467 167.907L245.537 166.066L239.597 166.228L233.662 165.551L227.714 167.632L221.775 167.804L215.845 165.757L209.906 165.72L203.955 168.576L198.018 167.986L192.077 168.581L186.152 165.717L180.212 165.94L174.265 167.769L168.332 166.606L162.399 165.405L156.533 167.451L150.674 168.355L144.816 166.537L138.968 168.071L133.073 165.267L127.219 166.204L121.397 167.711L115.559 168.245L109.576 166.244L103.971 170.239L97.9732 168.707L92.3007 170.684L86.4612 170.997L80.668 171.805L74.7425 171.189L69.0972 174.263L63.1652 173.377L57.281 174.13L51.4052 173.325L44.8449 172.222L38.3012 171.2L31.7699 170.116L25.5643 167.456L20.1231 166.532L14.6672 165.681L8.94751 166.128L3.65187 164.483L-1.77188 163.471L-8.19408 156.902L-11.5052 150.438L-12.259 143.985L-11.1043 137.418L-11.4225 130.945L-12.4177 124.5L-13.6592 118.05L-10.9762 111.487L-14.6378 105.075L-12.3003 98.5534L-12.3797 92.0721L-14.875 85.5724L-10.9415 79.0063L-11.4515 72.4L-13.6864 65.7298L-13.6567 59.1095L-10.2885 52.643C-10.2885 52.643 -11.1895 45.2297 -11.1895 46.1163C-11.1895 45.9257 -10.7572 40.1377 -10.7572 39.7093C-10.7572 39.3534 -13.679 33.4561 -13.679 33.2131C-13.679 33.464 -12.888 25.1414 -12.888 26.7117C-12.888 25.9632 -9.95379 20.3116 -9.95379 20.6858C-9.95379 21.8583 -4.00436 23.9812 -4.00436 23.8159C-4.00436 23.9444 2.32858 26.0201 2.32858 27.4338C2.32858 27.8212 7.74737 25.8452 7.74737 26.577C7.74737 26.7615 12.919 28.497 12.919 26.9259C12.9223 27.558 18.0229 27.6306 18.0229 25.8749Z" fill="#232940"/>
</g>
</svg>
